<?xml version="1.0" encoding="utf-8"?>
<!-- Generator: Adobe Illustrator 19.0.0, SVG Export Plug-In . SVG Version: 6.00 Build 0)  -->
<svg version="1.1" id="Capa_2" xmlns="http://www.w3.org/2000/svg" xmlns:xlink="http://www.w3.org/1999/xlink" x="0px" y="0px"
	 viewBox="0 0 1876.3 2517.3" style="enable-background:new 0 0 1876.3 2517.3;" xml:space="preserve">
<style type="text/css">
	.st0{fill:#5C616F;}
	.st1{fill:#BCBCBC;}
</style>
<g id="XMLID_2_">
	<g>
		<path class="st0" d="M1764.1,2197.1c10.7,6.4,6,14.6-2.8,24.4c-8.8,9.9-13.1,15.1-17,23.4c-3.9,8.3-23.2,12.6-37.4,6.8
			c-14.2-5.7-6.9-15-2.1-21c4.8-6-1.5-18-1.5-18c-1.4-5.2-2.2-5.6-7.9-7.8c-12.9,7.7-26.4,7.9-31.7,1.9c-4-4.6-8.1-6.4-13.5-7
			c-0.8,0.8-1.6,1.6-2.4,0.2c0,0,0-0.1,0-0.1c0-0.4,0.6-1.1,0.9-1.6c0,0,0,0,0,0c0.8-1.2,1.6-2.4,2.3-3.7
			c6.4-10.6,4.5-15.6-7.3-19.5c-0.7-0.2-1.5-0.3-2.1-0.6c-7.8-3.8-19.6-0.8-22.8-12.9c-0.1-0.5-1.2-0.8-1.9-0.9
			c-5.4-1-7.4-5-9.4-9.6c-2.2-5.1-5.6-6-9.4-3.3c-4.1,2.9-5,7.4-2.1,11.2c1.1,1.4,4.2,1.5,2.6,6.4c-6.4-7-13.6-11.7-20.1-17.2
			c-3.8-3.2-2.8-8.2,1.8-10.8c3.2-1.9,6.5-3.2,8-6.9c0.8-1.9,1.3-4.8,3.8-4.7c2.8,0.1,4.2,2.4,4.3,5.4c0.3,5,4,7.5,7.6,10.1
			c1.9,1.3,4.2,1.4,6.1-0.3c2.1-1.7,1.5-3.7,0.6-5.9c-1.6-3.8-4.3-6.9-7-9.8c-7.1-7.5-9.4-17.1-12.3-26.5c-0.6-2-1.6-5.1,1-5.8
			c5.6-1.4,9.7-5.8,14.7-7.5c4.4-1.6,8.4-3.3,11.4-6.3c5.8,3.5,7.6,10.9,13.8,11.6c8.4,1,11.8,7,14.7,13.1c2.6,5.3,6,8,11.8,7.8
			c3.2,1.6,10.1,10.3,10.8,13.8c1,5.3,4.5,8.1,9.7,10.7c7.9,3.9,15.8,8.6,22.3,15c2.7,2.6,3.4,5.3,3.3,8.8
			c-0.2,8.8,1.5,11,10.2,11.3c3.1,0.1,6.1,0.4,9.1,1c3.1,0.5,6.2,1.2,9.7,2.1c0,0,0,0,0,0
			C1745.9,2174.3,1753.4,2190.7,1764.1,2197.1z"/>
		<path class="st0" d="M1756.8,1704.6c2.4,5,2.2,8.8-2.2,12.3c-1.1,0.9-1.8,2.3-2.7,3.4c-6.7,7.6-6.7,7.5-2.1,15.4
			c-16.9,5.3-28.4,16.3-33.8,33.3c-1.2,3.8-2,7.9,1.8,11.1c0,0,0,0.1-0.1,0.1c0.1,0.1,0.2,0.2,0.3,0.3c-2.1,6.1-1.5,20.6,0.2,26.6
			c2.7,9.8,2.4,19.4-1.2,28.9c-0.2,0.5-0.4,0.9-0.6,1.4c-5.1,0.8-10.7,1.6-16.2,2c-15.4,1.2-19.5-1.5-20.6-3.1
			c-5.4-8.5-16.6-4.1-24.8-0.9c-3.6,1.4-7,2.8-9.1,2.8c-1,0-2.1,0-3.4,0c-7,0.1-20,0.3-23.5-3.2c-1.8-1.8-2-2.9-2.5-5.3
			c-0.6-2.9-1.5-7.2-5.6-15c-5.6-10.6-16.8-8-24.3-6.2c-2.8,0.7-6.6,1.5-7.5,0.8c-4.6-3.7-11.2-9.4-11.3-9.4l-0.6-0.5h-0.8
			c-0.5,0-13.5,0-19.3,1c-5.4,0.9-24.3-2.1-29.2-7.8c-6.2-7.2-20.2-13-42.8-17.7c-5.4-1.1-9.9-1.7-13.5-2.2c-5.5-0.7-9.1-1.2-11-2.8
			c-1.9-1.6-2.8-4.7-3.1-10.9c-0.2-4.4-1.7-7.7-4.4-10c-5.3-4.4-14-3.3-19.7-2.6c-1.7,0.2-3.7,0.5-4.4,0.4c-0.7-0.4-2.2-1.3-4.4-2.5
			c-8.9-5-29.6-16.9-34.7-23.4c-6.3-8-23.7-24.8-26.4-27.3c-2.2-5.2-7.2-18.2-7.2-22.4c0-1-0.4-1.9-1.1-2.7
			c-2.4-2.4-8.2-2.5-17.5-2.5c-5.1,0-12.7,0-14.3-1.2c-1.6-1.3-2.1-2.9-2.7-6c-0.7-3.2-1.7-7.7-5.3-13.3c-5.4-8.4-15.7-3.9-23.2-0.6
			c-2.9,1.3-6.3,2.7-7.6,2.5c-4.1-0.7-8.9-6.2-13.9-12.1c-0.9-1.1-1.8-2.2-2.8-3.2c-4.5-5.1-14.2-5.7-25.6-6.3
			c-7.5-0.4-16-0.9-23.7-2.8c-7.6-1.9-11.2-1.8-12.9,0.2c-1.7,2-0.5,4.6,0.3,6.5c0.3,0.6,0.7,1.5,0.7,2c-2.8,4-12.1,15.2-15.5,15.9
			c-4.3,0.9-14.3,0-19-0.9c-1.6-0.3-1.6-2.7-1.4-9.5c0.1-2.4,0.2-5.1,0.2-8.3c0-8.5-11-13.5-22.7-18.8c-7.4-3.4-15.1-6.9-18.4-10.9
			c-2.4-2.9-5.5-5.9-8.8-9c-8.5-8.2-18.2-17.5-18.2-28.4c0-4.9-1.5-8.3-4.5-10.1c-4.8-2.9-11.6-0.6-14.8,0.8
			c-2.8-4.1-10.6-16-12.9-23.4c-2.6-8.8-9.6-6.7-14.3-5.4c-1.8,0.5-3.5,1-4.8,1c-1.3,0-5.4,0-5.4-11.1c0-6.9-9.7-7.1-19.2-7.4
			c-4.9-0.1-10-0.3-13.6-1.3c-1.2-0.3-2-0.7-2.3-0.9c-0.4-0.2-0.5-0.4-0.5-0.4c-0.1-0.5,0.9-2.2,1.5-3.3c1.6-2.7,3.8-6.5,3.8-11.4
			c0-7.7-10.6-9.9-19-11.6c-3.2-0.6-8.4-1.7-9.3-2.7c0-5.8,0-12.3-1-20c-0.9-7.4-6.6-13.8-7.9-15.2c-1.1-2.1-7.4-13.9-15.5-21.1
			c-6.1-5.5-13-3-18.6-1c-3,1.1-5.9,2.1-7.8,1.5c-3.9-1.1-4.2-3-4.7-7.4c-0.1-1-0.2-2.1-0.4-3.2c-1.3-7.6-9.3-11.6-12.6-13
			c-1.6-0.6-3.8-1.1-6.4-1.7c-4.6-1-10.9-2.5-12.4-5c-2.4-3.9-9.5-10.9-15.3-16.5c-1.5-1.5-2.9-2.8-3.9-3.8
			c-4.1-4.1-14.1-16.3-16.4-19.1c0.1-3.6,0.6-19.7,4.6-32.6c3.7-11.9-5.4-16.9-12.8-20.9c-3.4-1.8-6.5-3.5-8.4-5.7
			c-3.2-3.6-1.5-6.5,4.4-14.6c2.5-3.5,5.4-7.4,8.1-12.2c2.3-4,2.9-7.2,2-9.8c-1.3-3.9-5.6-5.8-10.6-7.9c-4.9-2.1-10.5-4.5-15.4-9.4
			c-7-7-4.8-17-2.8-26.8c1.5-7.2,3-14.1,0.3-19c-0.9-1.7-1.8-3.3-2.8-4.9c-4.4-7.8-8.6-15.1-6.6-19.7c2.7-6.3,5.3-20.5-2-34
			c-5.9-10.9-3-37.5,5.6-51.8c5-8.3,4.8-18.6,4.6-27.7c-0.1-7-0.3-13.6,2-17.7c4.4-8-3.7-13.9-9.1-17.8c-1.4-1-3.3-2.4-4-3.2
			c0.3-0.3,0.6-0.7,1-1.1c2.5-2.8,6.8-7.6,5.9-13.2c-0.7-4.1-3.9-7.7-9.8-11c-3.3-1.9-4.8-3-5.5-3.6c1.1-0.4,3.2-1,4.8-1.3
			c3.9-1,8.8-2.2,13-4.6c9.4-5.5,14.5-11.6,19.4-17.6c1.2-1.5,2.5-3,3.8-4.6c1.5-1.7,1.5-3.3,1.2-4.3c-0.9-3.5-6-5.5-11.9-7.7
			c-2.6-1-7.4-2.8-8.3-4c0.1-0.2,0.5-0.5,1.2-0.9c1-0.6,4.1-2.6,3.6-5.4c-0.7-3.6-6.2-4.7-16.7-6.5c-5.4-0.9-10.9-1.9-14.1-3.2
			c-1.5-0.6-2.7-1.1-3.6-1.4c-0.4-0.1-0.8-0.3-1.1-0.4c0.1-0.1,0.1-0.3,0.2-0.4c0.7-1.7,1.9-4.5,2.9-9.5l0.5-2.4l-24.9-1.5
			c-0.9-5-4-18.5-10.6-22.5c-4.7-2.8-9.8-1.5-14.7-0.2c-3.7,1-7.6,2-11.6,1.4c-3.1-0.4-4-1.2-4.4-1.8c-1.3-1.8-0.5-6.2,0.8-12.9
			c0.4-2,0.8-4.4,1.2-6.9c2-12.2-7.2-14.2-12.2-15.3c-1.2-0.3-3-0.6-3.6-1c0-0.1,0-0.1,0.1-0.3c2.9-7.3-6.2-15.7-12.8-21.9
			c-1.2-1.1-2.4-2.2-3.3-3.1c-5.3-5.3-25.5-17.4-29.5-19.8c-1.4-4-7.7-21.9-14.2-31c-2.1-3-4.6-3.5-6.4-3.4
			c-6.5,0.3-13.2,10.1-15.9,14.4c-5.1-3.4-11.4-8.7-12-11.7c-0.1-0.5,0-0.8,0.2-1c3.5-4.6,4.3-12.2,5.2-19.4c0.3-2.5,0.5-4.8,0.9-7
			c1.3-7.5-7.5-13.5-13.9-17.9c-2.1-1.5-4.1-2.8-5.2-3.9c-1.1-1.1-2.8-2.5-4.8-4c-5.4-4.4-14.5-11.7-14.5-17.1
			c0-9.8-17.6-21.4-25.1-25.9c-4-2.4-1.3-10,1.4-17.4c0.9-2.4,1.7-4.8,2.4-7.1c1.6-5.7,6.5-8.2,11.3-10.5c2.5-1.3,4.9-2.5,6.6-4.1
			c5-5,9.1-28.3,9.1-35.5c0-4.4-4.1-10-8.1-15.4c-2.7-3.6-6.1-8.2-6.1-10.2c0-5.7-1.4-31.6-1.4-32.7l0-0.5l-0.3-0.4
			c-4.5-7.6-13.5-24.9-12.5-29.7c1.6-7.9-4.5-24.2-10.4-31.5c-3-3.7-5.9-19.9-7.7-33c3.2-3.2,6.2-6.2,9.1-9.2
			c47.4-16.2,94.7-32.5,142.1-48.5c7.7-2.6,14.7-6.2,21.2-11.1c18.7-14.1,37.5-28,56.5-41.7c8.4-6,15.7-13,22.4-20.8
			c17.8-20.9,35.7-41.7,53.8-62.3c4.2-4.8,7.1-10,8.7-16.1c4.4-17,9-33.9,13.7-50.8c1.2-4.2,1.6-8.7,4.9-13.1
			c6.3,5.1,12.7,1.3,19.2-0.1c3.9-0.8,4.8-4.4,4.2-7.8c-1-6.1-1.6-12.4-4.7-17.9c-3.4-6-3.1-11.6-0.3-17.7
			c6.4-14.1,5.7-16.2-6.9-25.3c-0.9-0.6-1.8-1.5-2.8-1.8c-12-3.3-14.9-12.9-16-23.6c-0.5-4.9-1.3-9.4-8.6-12.2
			c9.5-1.2,16.4-1.9,23.3-3.1c7.7-1.4,15-3.7,18.7-11.7c1.8-3.9,3.9-2.7,7-1.3c9.2,4,16.8,10.3,24,17c5.6,5.3,11.2,9.5,19.4,7
			c3.5-1,5.5,0.8,6.9,3.7c2.1,4.2,4.2,8.5,6.3,12.7c2.1,4.2,5.1,7.4,10.3,6.5c4.3-0.8,6.8,1.1,9.4,4.1c5.5,6.3,10.8,12.3,19.1,15.8
			c5.1,2.2,6.7,10.2,6.5,15.2c-0.5,10.6,5.2,16.1,12.4,20.9c0.8,2.9-1.2,3.8-2.5,4.8c-4,3.1-3.8,5.6-1.1,10.1
			c4.4,7.2,10.8,11.7,17.7,15.8c2.1,1.3,4.7,1.8,7.1,2.8c4.3,1.7,7.3-4.8,11-2.2c3.1,2.1,2.1,7.1,5.7,10c4.7,3.8,9.1,5.6,14.6,3.1
			c1.7,3.6-1.3,7.2,2.2,9.7c4.4,3.2,8.3,7.1,13.7,9c1.5,0.5,3.2,0.2,4-1c3.6-5.4,7.6-2,10,0.4c5.7,5.7,13.6,9.9,13.5,20
			c0,5,5.4,7.6,8.7,10.9c4,4.1,4.5,7,0.6,11.9c-7.9,10.1-6.2,14.4,3.3,22.8c5.6,5,12.9,6.3,18.4,11.2c2.1,1.8,4.8,2,7.1,0.1
			c2.6-2.1,5.7-3.4,8.8-4.2c3.7-1,7.5-1.4,8.1,4.1c0.3,2.8,2.5,4.4,4.2,6.2c1.3,1.4,2.7,3.2,2.1,4.8c-2.9,7.9-0.1,15,2.3,22.3
			c1.2,3.6,0.5,6.5-3.8,8.9c-8,4.5-8,16.5,0,21.4c3.4,2.1,6.8,3.4,8.3,7.8c0.9,2.7,4.1,3.2,6.6,2c5.9-2.9,8.3,0.1,11,4.8
			c3.6,6.3,8.6,8.3,13.4,3.7c6.3-6,12-2.7,17.7-1.5c9.2,2,9.1,2.5,14.4-5.2c0.4-0.6,1-1,1.8-1.7c5.4,3.5,11.2,4.9,17.3,1.7
			c3.4-1.7,6.1-1.1,8.9,1.4c7.5,6.6,15.9,6.5,24.3,1.9c2.5-1.3,4.5-2.1,7-0.4c4.3,2.9,7.4,1.5,9.9-2.8c3.9-6.8,7.7-12.3,17.2-6.7
			c4.3,2.5,8.7-0.7,11.3-5.8c3.6-7.1,7.7-14,15.2-17.9c1.3-0.7,3.4-2.1,3.7-1.8c4.3,5,10.8,2.3,15.2,4.3c4.1,1.9,8,2.5,12.8,2.9
			c-3,5.4-1.7,9.4,2.8,12.5c4.7,3.3,8,0.1,10.7-2.6c3.4,1.9,3.4,4.9,5.1,6.7c1.6,1.7,3.6,3.5,5.7,2.5c7-3.4,14.6-1.3,21.8-2.9
			c4.5-1,8.3-3.2,11.1-6.6c2.3-2.7,4.1-3.1,7.4-1.5c4.4,2.1,8.1,1,11-3.7c3.2-5.1,7.5-4.6,13.6-2.8c7.6,2.2,12.5,8.2,19.2,11.7
			c4.1,2.2,5.7,7.8,8.9,11.6c8.2,9.7,10.2,10.2,20.8,3.1c4.3,2.2,5.6,9,12,8.3c0.6-0.1,1.8,0.3,1.9,0.7c2.8,10.9,9.6,6.9,16.1,3.7
			c3.3,12.4,12.7,16.8,23.4,19.7c-0.9,4.1-3.8,7-5.9,10.3c-26.2,40.1-52.4,80.2-78.7,120.3c-6.2,9.4-8.8,9.9,4.8,16.3
			c4.9,2.3,10.2,3.6,14.8,6.8c3.5,2.4,7.6,2.4,11.2-0.6c1.7-1.4,3.5-2.6,5.4-3.8c8.8-5.4,11.4-5.2,19,1.8
			c7.5,6.9,14.2,13.8,17.3,24.6c1.7,5.9,8.6,10.6,13.8,15.1c3.4,2.9,6.1,6.2,8.7,9.8c2.8,3.9,2.4,8-1.1,10.6
			c-3.2,2.4-5.9-0.3-8.4-2.8c-7.2-7.5-7.4-7.5-16.4-1.4c-1.9,1.3-3.2,1.4-4.7-0.1c-3.1-3.1-7.4-5.4-8-10.1c-1-6.7-4.6-10.1-11-11.9
			c-5.2-1.5-10.1-4.7-14.7,1c-1.4,1.7-3.2,1.4-4.8,0.1c-2.7-2.1-5.6-1.8-8.2-0.2c-3.1,2-3.9,0.2-5.8-2c-4.7-5.6-7.2-5.3-11.7,0.6
			c-1.3,1.7-1.8,3.2-4.8,3.1c-8.9-0.1-14.8,3.8-16.5,12.1c-1.2,6.2-5.3,9.1-9.1,13c-4.5,4.6-10.2,1.5-14.4,1.1
			c-5.3-0.5-9.9,5.1-15,1c-5-3.9-9.8,3.6-15.3,0.3c-2-1.2-5.6,0.8-7.3,3.7c-2.5,4.4-5.5,6.1-10.7,3.6c-3.3-1.6-7.8-1.3-10.5,1.2
			c-8.4,7.5-18.4,4.9-28,4.9c-6.8,0-13.2,2.1-19.7,3c-10.4,1.5-17.1,8.2-25.3,12.9c-4.7,2.7-8.7,5.7-12.8,9.3
			c-7,6.1-15.5,10.8-24.9,13.2c-8.1,2-17.3,2.5-17.9,14c-6.1,4.6-11.2,10.4-18.4,13.4c-4.7,1.9-9.5,3.1-10.4,9.7
			c-0.5,3.7-4.9,3.6-8.2,3.1c-9.7-1.4-18.2,1.7-26.4,6.8c-4.7,2.9-5.8,6.4-3.5,11c2.7,5.3,2.2,9.7-0.5,15.3c-2.6,5.4-3,11.9-6,17.4
			c-0.6,1.2-0.7,3-0.3,4.3c4.3,15.5-3.3,27.9-10.5,40.3c-0.7,1.2-1.8,2.5-3,3.1c-12.2,6.7-17.6,19.2-24.9,29.9
			c-6.6,9.6-4.7,18.6,4.3,25.9c4.2,3.5,6.8,7.5,7.5,12.8c0.4,2.5,1,5,1.6,7.5c3.8,14.1-2.6,23-17.4,24.4c-2.2,0.2-4.8,0-6.4,1.2
			c-9.7,7.2-21.9,10-31.4,17.6c-6,4.8-11.7,9.7-18.3,13.8c-6.2,3.8-11,9.6-10.1,18.1c0.3,2.4,0.3,5.2-1.8,7.2
			c-8.4,7.8-5.2,15.8-0.3,23.7c2.9,4.6,6.6,8.8,7.8,14.3c0.5,2.1,1.4,4.2,0.2,6.8c-9.4-0.9-18.6,5.1-28.7,0.8
			c-3.9-1.7-6.6,2.5-6,7.9c0.5,4.7,4,8.7,3,13.8c-0.6,0.2-1.1,0.2-1.6,0.1c-0.3,12.6,6.5,29.6,20.4,35c11.1,4.3,11.1,4.3,16.1,13.1
			c0,2-1.8,2-3.1,2.4c-9.5,3.1-11,8.6-4.1,15.6c1,1,2.3,2.2,3.6,2.4c12.2,2,13.8,11.8,15.2,21.2c0.7,4.6,1.5,8.6,5.2,11.5
			c2.9,2.3,3.5,5.4,4,8.7c1.1,7.6,4.9,13,12.4,15.1c9.5,2.6,13.6,8.3,13.1,18.4c-0.4,10.4,5.6,17.9,15.5,19.9
			c8.1,1.6,11.7,6.5,14.7,12.9c1.6,3.3,3.4,6.5,4.6,9.9c1.4,3.7,3.7,6.2,7.2,7.8c3.3,1.5,5.4,3.4,6.9,7.4c3.1,8.3,2.3,13.4-4,20.7
			c-7.2,8.5-14.1,17.4-22,25.3c-1.3,1.3-2.3,2.9-3,4.5c-2,5-0.4,7.8,5.1,7.9c11.7,0.3,23.4,0.1,35.1,0.1c9.5,0,18.6,0.4,28,3.6
			c6.7,2.3,13.6,3.1,19.8,7.6c2.5,1.8,7.7,0.4,11.6,0c6.6-0.7,16.4,3.1,17.8,8.9c1.4,5.6,8.4,10.4,2.7,17.8c-2.2,2.8,0.5,7.6,4.2,9
			c9,3.4,13.2,7.9,8.4,18c-1.5,3.3,1,8.3,0.7,12.7c-0.2,2.8,2.4,4.6,5.3,4.2c31.3-3.6,62.7-0.8,94.1-1.5c6.8-0.2,13.7-2.1,20.6-0.3
			c0.9,0.3,2.8-0.1,3-0.7c3.2-7.1,12.1-6.3,16.3-11.8c5.5-7.1,12.5-11.7,21.3-13.5c3.2-0.7,4.8-3.1,6.3-5.7
			c3.6-6.6,8.7-11,15.3-14.9c7.4-4.4,12.7-11.9,20.5-16.1c2.2-1.2,4.2-2.9,7.9-3.2c-3.8,8.6-1.9,15.9,4.4,22.2
			c3.2,3.2,1.2,7.3-1.3,8.3c-11.7,4.5-11.3,13.9-10.9,23.6c0.1,1.8-0.2,9.5-0.3,11.3c-0.1,0-0.1,0-0.2,0
			c-0.3,41.1-0.6,82.3-0.9,123.4c0,3.3-0.3,6.6,0,9.9c0.6,5,3.6,6.1,7.6,2.9c3.1-2.5,5-6.3,9.5-8.3c4,4.9,8.9,9,13.8,13.2
			c8,6.7,16.5,7,25.4,3.5c10.5-4.1,20.9-8.4,30.3-14.7c8.5-5.7,24.2-5.3,32.3,1c3.9,3.1,7.1,2.2,11.1,0.8c8.2-2.9,9.5-2.4,13.4,4.3
			c29.2,49.8,60.8,98.1,86.7,149.8C1743.5,1675.4,1749.8,1690.2,1756.8,1704.6z"/>
		<path class="st0" d="M1730.6,1931.8c0.9,2.4-1.3,4.1-3.6,4.6c-12.7,2.5-18.5,9.7-16.2,22.8c0.3,1.6-0.8,2.7-2.1,3.5
			c-3,2-5.7,4.9-9.1,5.9c-9.5,2.9-12.2,12.7-19.2,18.2c-3.4,2.7-2.2,9.6-2.2,14.6c0,4.4-1.3,6.8-5.6,7.8c-8,1.9-11.3,7.2-11.2,15.2
			c0,1.8,0.1,4.1-0.9,5.3c-5.5,7.1-2,12.5,2.4,18.5c5.2,7.2,10.8,13.5,18.6,18.1c7.8,4.6,7.5,7.7,0.5,13.9c-2.7,2.4-5.4,5-8.5,6.9
			c-7.6,4.7-10.3,12.4-13,20.2c-4.8,0.7-8-0.4-10.2-5.6c-2-4.8-4.6-10.6-10.2-12.2c-7-2-12.2-5.9-16.5-11.6c-1.3-1.7-3.1-3.3-5.1-4
			c-2.9-1.1-6.8-2.8-6.7,3.2c0.1,4.1-2.7,3.7-5.3,3.2c-4.5-0.9-8.9-1.9-10.3,4.4c-1.2,5.3-8.1,2.9-9.9,7.5c-0.7,1.9-0.1,3.5,0.5,5.2
			c1.7,5.2,3.3,10.4,4.9,15.6c0.5,1.6,1.7,4.6-0.6,4.5c-6.4-0.5-5.8,2.8-5.6,7.3c0.2,3.7-2.1,6.5-5.7,8.5
			c-10.6,5.9-10.8,13.3-0.8,20.6c4.1,3,8.8,5.2,12,9.4c2.4,3.1,5.3,4.9,9.3,4.8c4.2-0.2,4.8-4.3,6.2-6.6c5.9,1.9,10.3,3.9,12.4,9.4
			c1.4,3.7,5.4,4.9,9.2,4.8c5.7-0.1,10.7,2.2,15.8,3.9c7.1,2.4,8.1,6.1,3.9,12.3c-1,1.5-2.6,2.6-3.5,4.1c-1.2,2-4.4,3.5-2.4,6.5
			c1.7,2.5,4.2,4.7,7.4,3.1c4.8-2.4,6.8,0.3,10,3.3c7.7,7.2,16.7,9.9,26.9,4.7c2.5-1.3,5.4-2,8.1-3.1c1.5,0.8,2.1,1.1,3.6,1.9
			c0.5,2.6,0.9,5.2,1.4,7.9c1.1,5.6,0.2,10.1-4.3,14.6c-6.4,6.4-5.3,9.9,3,16.2c0.4,1.4,1.1,2.7,1.3,4.2c1.2,11.1,1.1,11.3-9.5,14.5
			c-6.8,2-11.1,5.4-15.5,11.8c-5.1,7.4-9.7,16.3-17.9,21.6c-2.1,1.4-4.8,3.2-5.4,5.3c-2.2,7.8-8.5,9.5-14.8,12.6
			c-9.8,4.9-19.1,15.2-19.2,28.5c1.2-0.3,2.8,0.3,4.2,0.5c2.3,1.7,4.7,3.4,7,5.2c8.9,6.5,9.1,16.7,0.4,23.6c-2.6,2-6,3.3-7.9,5.8
			c-4.5,6-9.5,8.2-16.9,5.8c-5.7-1.8-9.4,1.5-12.2,6.6c-2.9,5.3-5,9.5-1.1,16c0.5,0.9,1,1.8,1.5,2.8c-14.7-12.1-34.5-33.2-36.5-40.4
			c-2.7-9.7-18.4-15.5-23.5-17.1c-0.1-3.8-1-13.2-8-23.3c-4.5-6.6-11.3-9.6-16.3-11.9c-5.8-2.6-6.8-3.4-6.1-5.1
			c2.4-6.5-9.7-11.5-23.7-17.3c-6.5-2.7-13.9-5.7-15.4-7.5c-4.2-5.1-14.5-23.6-12.8-35.2c1.2-7.9-5.7-10.4-11.2-12.4
			c-6.3-2.3-10.2-4-10.5-8.9c-0.3-4.8-3.1-7.8-8.3-9c-4.1-1-9.3-0.8-14.3-0.5c-5.4,0.2-11,0.5-14.7-0.8
			c-10.4-3.5-20.4-9.2-22.2-27.5c-1.4-13.8-13.3-14.1-22.9-14.3c-5.5-0.1-10.7-0.3-14-2.4c-6.4-4-16-4.5-23.7-4.8
			c-4.1-0.2-9.8-0.4-10.9-1.5c-20.5-20.5-24.5-20.5-26.1-20.5c-0.8,0-18.6-0.2-24.5-13.8c-5.2-12.1-15-10.9-21.5-10.2
			c-1.5,0.2-2.9,0.4-4,0.4c-6.3,0-15.9,0-21.9-8.5c-3.8-5.4-9.3-6.5-14.2-7.5c-5.2-1-8.4-1.8-10.3-5.5c-1.5-3-3.6-5-6.2-5.8
			c-5.3-1.7-11.4,1.4-16.8,4.1c-0.5,0.3-1,0.5-1.6,0.8c-4.6,2.3-8.3,0.4-13.9-2.4c-2.1-1.1-4.4-2.3-7.1-3.3
			c-5.8-2.3-8.9,0.2-10.5,1.6c-0.1,0.1-0.3,0.2-0.4,0.3c-0.3-0.3-0.7-0.9-1.3-1.9c-3.9-7.1-12.2-4.5-18.3-2.6
			c-2.7,0.9-5.4,1.7-6.9,1.5c-4.7-0.8-16.6-6.8-24-20.6c-5.8-11-15.1-10.8-19.5-10.7c-0.3,0-0.7,0-1.1,0c-0.2-5.4-1-24.9-2.9-30.6
			c-0.9-2.7-3-4.1-5-5.4c-3.3-2.1-6.6-4.3-7.2-13c-0.7-11.8-9.3-11.3-14.5-11c-1.7,0.1-4.3,0.2-4.7-0.4c-1.8-3-7.6-5.1-17-8.1
			c-6.4-2.1-13-4.3-16.7-6.7c-7.8-5.2-18.8-23.1-23.8-34.1c-4.6-10.2-13.4-20.9-21.9-31.3l-1.1-1.3c-2.4-2.9-4.4-5.1-6.2-7
			c-4.5-4.8-6.5-7.1-6.5-12.4c0-4.8-6.6-9-20.2-12.8c-9.7-2.7-20.4-4.5-23.5-4.5c0,0-1-0.2-3-3.9c-1.5-2.7-3-6.3-4.4-9.8
			c-2.7-6.5-5.3-12.6-8.2-15.1c-4.8-4-11.5-16.5-11.5-29.6c0-12.7-17.9-18.9-23.6-20.5c0.1-5.6,0.3-23.1-3-32.2
			c-4.2-11.6-17.2-29.4-21.1-34.6c-3-4-6.7-5.3-9.4-6.2c-3.2-1.1-3.7-1.3-3.4-3.6l0.1-0.6c0.8-6.4,0.9-7.3-2.5-10.6
			c-0.3-0.3-0.6-0.6-1-1c-6.2-6.2-15.4-17.3-15.4-21.2c0-6.9-7.4-13-15-18.7c-6.5-4.9-6.7-8.3-6.7-25.7c0-13.7-5.9-19-12.7-25.1
			c-2.2-2-4.5-4-6.8-6.6c-9.2-10.1-12.6-18.9-10.8-28.4c2.3-12.8-4.7-17.7-7.8-19.3c-2.8-1.5-16.7-22.4-15.8-30
			c0.8-7.5-7-10.3-13.3-12.5c-2.6-0.9-5-1.8-6.6-2.8c-1.4-0.9-3.5-3.7-5.1-11.2c-1.1-4.9-1.8-11-2.4-19.3c-0.7-9.6-6.6-11-11.9-12.3
			c-3.3-0.8-6.7-1.6-9.6-4.3c-7.5-6.7-11.2-20.9-11.6-22.4c-0.1-1.2-0.9-9.6-0.9-14.8c0-6.7-10.6-8.3-14.4-8.7l-12.1-13v-13.8
			l-18.5-8.2l-9.8-1.6v-19.9c0-7.9-0.8-9.7-2.6-13.2c-0.2-0.3-0.3-0.6-0.5-1c-1.5-2.9-13.4-32.9-19.6-48.6c-0.1-2.8-0.9-21.8-0.9-27
			c0-2.5-1.4-6-3.2-10.5c-2.7-6.6-6-14.8-4.4-20.1c2.6-8.6-5.7-13.1-13.7-17.5c-2.7-1.5-5.5-3-7.9-4.7c-4.6-3.2-3.3-6.5,0.1-13.8
			c1.7-3.6,3.6-7.7,4.6-12.4c1.9-8.8-5.4-18-11.2-25.4c-2.3-3-6.3-8-5.9-9.3c2.1-6.3-5.7-12.2-13.9-18.4c-1.3-0.9-2.6-1.9-3.8-2.9
			c-8.9-6.9-12.9-15.6-10.6-23.2c3.2-10.7-10.9-24.9-22-30c-3.5-1.6-6.7-5.8-8.8-11.8c-2.4-6.9-2.8-14.1-1.5-16.5
			c2-3.9,0.3-13-2.3-25.4c-1.1-5.2-2.2-10.2-2.2-12.4c0-1.9,0.2-4.4,0.3-7.1c0.4-6.5,1-14.5-0.4-20.8c-1-4.7-5.2-8.2-8.9-11.3
			c-4.2-3.5-6.9-6-6.2-8.6c1.8-7-9.7-10.6-18.8-13.5c-2.9-0.9-6.5-2.1-7.2-2.7c-2.1-2.1-5.9-18.3-3.3-25.2
			c3.3-8.9,1.7-21.1-6.7-25.3c-0.4-0.2-0.8-0.4-1.2-0.6c-2-1-6.1-3-6.1-4c0-0.1,0.1-1.9,8.3-5.7c1.6-0.7,6.3-3,6-6.7
			c-0.5-4.8-8.6-7.3-19.3-10c-2-0.5-4-1-4.7-1.3c-1.4-0.5-3.6-2.4-6.1-4.4c-5.2-4.2-11.7-9.5-18.9-10.9c-1.7-0.3-3.2-1.5-4.6-3.5
			c-4.7-7-6.1-23.5-3.2-37.5c4.1-19.5-6.7-40.8-17.2-59.1c-1.8-3.1-3.5-6-5-8.5c-7.9-13.5-11.9-20.2-9.1-26.4
			c5.7-12.7-19.4-29.6-24.4-32.9c-12.1-7.8-18.9-23.5-16.1-37.5c0.9-4.6,2-6,2.7-6.3c1.9-0.8,6.7,2.3,12.4,6
			c2.1,1.4,4.5,2.9,7.2,4.6c4.3,2.7,7.6,4,9.6,2c2.6-2.7-0.3-8-8.7-21.3c-2-3.1-4-6.4-5.6-9.1c-1-1.7-1.2-3.5-0.5-5.5
			c1.2-3.6,5-7.2,9.3-10.2c1.8-0.7,3.5-1.4,5.3-2.2c1.8-0.8,3.5-1.3,5.1,0c4.5,3.6,8.6,8,14.5,9.5c0.5,0.1,1.1,1.4,0.9,1.8
			c-3.3,7.7,4.8,13.5,3.3,21c-1,5.6,4.2,9.2,6.9,13.2c6.3,9.2,12.6,18.6,22.4,24.7c0.5,0.5,1,1,1.4,1.6c7.4-0.3,19.5-1.9,25.6,0.5
			c7.8,3,13.2-4.9,17.9-9.8c2.4-2.6,4.2-5.1,7.7-6.3c3.8-1.3,6-4,4.8-8.5c-1-3.8-4.6-7.3-2.3-11.4c2.9-5.1,7.8-8.6,12.2-12.4
			c2.1-1.8,4.8-3,7.8-3.1c1.6-0.8,7.8-4,7.8-4c0.4-0.5,0.8-1.1,1.3-1.6c2.9-2.9,4.7-6.5,6.7-9.9c2.7-4.7,4.1-9.2-0.4-13.9
			c-3.7-3.9-3.7-9-1.5-13.3c3.7-7.5,5.3-15.9,10.5-22.7c0.4-0.6,0.8-1.3,1.3-1.8c4.7-5-0.2-12.4,3.1-16.5c3.3-4.1,8.9-6.6,9.4-12.5
			c0.4-4.3,2.2-7.1,5.3-10c2.2-2.1,3.8-5.8,3.8-8.8c-0.1-15.3,4.2-29.6,9.5-43.7c0.4-1,0.4-2.3,3-2.1c2.1,2.2,3.8,5.6,5.5,9.1
			c3,6.2,4.1,6.6,9.8,4.2c10.2-4.3,10.7-7.2,3.1-19.5c9.6-12.5,23.4-25.8,35.9-38.1c1.8,12.4,4.7,27.5,8.2,31.9
			c5.6,7.1,10.7,22,9.5,28c-1.5,7.3,9.8,27.2,12.7,32.2c0.2,3.8,1.4,26.9,1.4,32c0,3.4,3.2,7.7,6.9,12.7c3.2,4.4,7.3,9.8,7.3,12.8
			c0,7.7-4.5,29.1-7.9,32.5c-1.2,1.2-3.3,2.2-5.5,3.3c-5.1,2.5-11.3,5.7-13.5,13.2c-0.6,2.2-1.4,4.5-2.3,6.9
			c-3.1,8.6-6.6,18.3,0.4,22.5c11.5,6.9,23.1,16.5,23.1,22.3c0,7.5,9.3,15,16.1,20.4c1.9,1.5,3.5,2.8,4.4,3.7
			c1.3,1.3,3.4,2.7,5.8,4.4c5.4,3.7,12.9,8.8,12.1,13.6c-0.4,2.3-0.7,4.8-0.9,7.2c-0.8,6.7-1.5,13.6-4.3,17.4
			c-0.9,1.2-1.3,2.7-0.9,4.4c1.3,6.7,14.2,14.8,15.7,15.7l1.9,1.2l1.1-1.9c3-5.4,9.4-14,13.6-14.2c0.6,0,1.6,0.1,2.7,1.6
			c6.8,9.5,13.8,30.4,13.9,30.6l0.3,0.8l0.7,0.4c0.2,0.1,23.9,14.1,29.4,19.5c1,1,2.1,2.1,3.4,3.2c5.4,5,13.6,12.6,11.7,17.2
			c-0.6,1.4-0.6,2.7,0,3.8c1.1,2.1,3.6,2.6,6.5,3.2c6.2,1.3,10.2,2.8,8.9,10.4c-0.4,2.5-0.8,4.8-1.2,6.8c-1.5,8-2.4,12.9,0,16.2
			c1.4,1.9,3.6,3,7.3,3.5c4.9,0.7,9.3-0.5,13.3-1.5c4.4-1.1,8.3-2.1,11.4-0.2c5.1,3.1,8.2,16.3,8.9,21.2l0.3,1.7l23.3,1.4
			c-0.8,3.2-1.6,5.1-2.1,6.3c-0.6,1.4-1.1,2.6-0.5,3.9c0.6,1.3,1.8,1.8,3.8,2.6c0.9,0.3,2,0.8,3.4,1.4c3.7,1.6,9.5,2.6,15.1,3.5
			c4.2,0.7,11,1.9,12.9,3.1c-0.2,0.2-0.7,0.6-1.4,1c-2.3,1.5-3.4,3.1-3.2,4.9c0.3,3.5,5.1,5.3,11.1,7.6c2.7,1,9,3.4,9.3,4.7
			c0,0,0,0.2-0.3,0.5c-1.4,1.6-2.7,3.1-3.9,4.7c-4.9,5.9-9.5,11.6-18.2,16.6c-3.7,2.1-8.2,3.3-11.9,4.2c-4.7,1.1-8,2-8.4,4.8
			c-0.3,2.4,1.8,4.5,8.1,8c4.6,2.6,7.2,5.3,7.7,8c0.6,3.6-2.5,7.1-4.8,9.7c-0.6,0.7-1.2,1.3-1.6,1.9c-0.6,0.7-0.8,1.6-0.6,2.5
			c0.3,2.2,2.7,3.9,5.9,6.2c5.9,4.3,10.2,7.9,7.8,12.3c-2.8,5.2-2.7,12.3-2.5,19.9c0.2,8.9,0.3,18.2-4,25.4
			c-4.3,7.1-7.5,17.7-8.8,28.5c-1.8,15.6,1.2,23.9,3.1,27.5c6.5,12.1,4.2,24.7,1.8,30.3c-2.8,6.5,1.7,14.4,6.8,23.5
			c0.9,1.6,1.8,3.2,2.7,4.8c2,3.6,0.7,9.7-0.7,16.1c-2.2,10.3-4.7,22.1,3.9,30.7c5.4,5.4,11.7,8.1,16.7,10.3
			c4.2,1.8,7.6,3.2,8.3,5.4c0.5,1.4-0.1,3.6-1.7,6.4c-2.6,4.6-5.4,8.5-7.8,11.8c-5.5,7.5-9.8,13.5-4.2,19.9c2.4,2.7,6,4.7,9.6,6.6
			c8.4,4.6,13.3,7.9,10.8,15.9c-4.8,15.3-4.8,33.9-4.8,34.7v0.8l0.5,0.6c0.5,0.6,12.4,15.3,17.2,20c1.1,1.1,2.4,2.4,4,3.9
			c5,4.8,12.6,12.1,14.6,15.6c2.4,4,9.2,5.6,15.1,6.9c2.3,0.5,4.4,1,5.7,1.5c2.1,0.8,9.1,4,10,9.7c0.2,1,0.3,2,0.4,2.9
			c0.5,4.3,1,9.1,7.8,11.1c3.2,0.9,6.7-0.3,10.4-1.6c5.2-1.8,10.1-3.6,14.3,0.2c8.1,7.2,14.6,20,14.6,20.2l0.2,0.3l0.2,0.2
			c0.1,0.1,6.1,6.2,7,12.9c0.9,7.4,0.9,13.9,0.9,19.6c0,4.1,5.6,5.3,12.7,6.7c6.6,1.3,15.6,3.2,15.6,7.4c0,3.7-1.7,6.7-3.2,9.2
			c-1.4,2.4-2.8,4.7-1.8,7c0.9,2.2,3.5,3.2,5.6,3.8c4.1,1.1,9.4,1.3,14.6,1.4c6.3,0.2,15,0.4,15,3.2c0,12.7,5.3,15.4,9.7,15.4
			c1.9,0,4-0.6,6-1.2c5.6-1.6,7.7-1.8,9,2.5c2.9,9.7,14,25.5,14.5,26.1l1.1,1.5l1.6-0.9c2.3-1.2,8.9-3.8,12.4-1.8
			c1.6,1,2.5,3.2,2.5,6.5c0,12.6,10.3,22.6,19.5,31.4c3.2,3.1,6.2,6,8.4,8.7c3.9,4.8,11.7,8.3,19.9,12.1c9.5,4.3,20.2,9.2,20.2,14.9
			c0,3-0.1,5.7-0.2,8.1c-0.3,7.4-0.6,12.8,4.8,13.8c4.6,0.9,15.4,2,20.7,0.9c6.4-1.3,18.3-17.8,18.4-17.9c1.2-1.8,0.3-3.9-0.5-5.8
			c-0.3-0.6-0.6-1.5-0.8-2c0.7-0.1,2.7-0.3,8.4,1.2c8,2,16.8,2.5,24.5,3c10,0.6,19.4,1.1,22.6,4.9c0.9,1.1,1.9,2.2,2.8,3.2
			c5.8,6.8,10.8,12.6,16.4,13.6c2.5,0.4,5.8-1,10-2.8c8.2-3.6,14.7-5.9,17.9-1c3.2,5,4,8.9,4.7,12c0.7,3.3,1.3,6.1,4.2,8.4
			c2.5,2,8.1,2.2,16.9,2.1c4.5,0,12.8,0,14.4,1.2c0.2,6.1,6.9,22.4,7.7,24.2l0.2,0.4l0.3,0.3c0.2,0.2,19.8,18.9,26.3,27.2
			c5.6,7.2,26.1,18.9,35.9,24.5c2.1,1.2,3.8,2.2,4.3,2.5c1.4,0.9,3.6,0.7,7.2,0.2c5-0.6,12.5-1.6,16.4,1.6c1.8,1.5,2.7,3.7,2.9,6.9
			c0.8,15.5,5.8,16.2,17.8,17.8c3.5,0.5,7.9,1.1,13.2,2.2c21.3,4.4,34.9,9.9,40.4,16.3c6.3,7.3,26.7,10.3,33.2,9.2
			c4.7-0.8,14.9-0.9,17.8-0.9c1.7,1.5,6.9,5.9,10.8,9c2.5,2,6.3,1.1,11.1,0c8.7-2,15.7-3,19.5,4.1c3.8,7.2,4.6,11,5.2,13.8
			c0.6,2.7,1,4.8,3.7,7.5c4.4,4.4,15.1,4.6,26.5,4.4c1.2,0,2.3,0,3.3,0c2.8,0,6.5-1.4,10.6-3c9.2-3.6,16.4-5.9,19.7-0.8
			c2.5,3.9,8.9,5.4,17.3,5.4c6.6,0,14.5-0.9,22.7-2.2c0.3,7.9-4.5,12.8-10.5,17.4c-5.6,4.2-5.8,8.6-0.1,13.4
			c5.3,4.4,8.7,8.7,5.8,15.8c4.8,8.2,2.9,19.5,11.8,25.9C1729,1918.6,1728.4,1925.9,1730.6,1931.8z"/>
		<path class="st0" d="M1600,2129.2c4.7,1.3,5.9,4.2,6.9,7.4C1602.2,2134.9,1602.2,2134.9,1600,2129.2z"/>
		<path class="st0" d="M1601.7,2151.4c2.4,0.2,1.8,2.5,2.5,3.6c-0.1,2-0.7,3-2.6,2.5c-1.8-0.5-3.3-1.4-2.8-3.5
			C1599.1,2152.5,1600,2151.2,1601.7,2151.4z"/>
		<path class="st1" d="M1597.1,2434.1c0.4,2.2-2.1,5.2-3.7,7.7c-5.5,8.6-11.2,17-16.7,25.5c-2,3.1-4.6,4.5-8.1,4.5
			c-4.2,0-8.2,0.9-11,4.1c-5.8,6.6-13.5,6.4-20.1,3.7c-7.3-3-13.3-1.7-19.7,1.4c-11.5-9.5-25-16.4-35.3-27.4c-1.9-2-4.8-3.4-7.4-4.5
			c-7.7-3.2-13.6-7.9-17.6-15.5c-4.3-8.2-13.1-11.2-21-15c-3.6-1.7-10-8.2-13.7-14c-8.3-0.4-14.7-6.7-22.9-7.8
			c-2.8-0.4-2.9-2.8-2.5-5.1c0.5-2.8,1.4-5.6,1.7-8.5c1.3-12-1.2-22.9-10-31.9c-1.9-1.9-3.2-4.4-4.8-6.7c-10-6.8-26-14.7-37-15.2
			c-6.9-0.3-11.6-4.4-15.2-9.5c-6-8.4-12.9-14.9-23.7-15.9c-1.1-0.1-2.4-0.4-3-1.1c-7-7.8-17.3-12.7-22.2-22
			c-7-13.2-18.7-18.9-31.7-23c-6.2-1.9-12.9-2.5-19.4-3.3c-5.2-0.6-10-1.7-14.1-5.1c-10.3-8.4-23.4-11.3-34.9-17.6
			c-8.1-4.5-14.8-12.2-25.2-12.1c-1.2,0-2.8-1.2-3.6-2.3c-5.9-8.4-14.9-11.4-24-14.2c-9-2.8-17.7-6.5-27.3-7.7
			c-7.4-1-13.9-6.2-19.9-10.8c-9.4-7.2-19.9-13.3-27.1-23.4c-1.7-2.4-5.3-3.9-8.3-5c-9.6-3.5-18.6-8.2-28.5-10.9
			c-5.9-1.6-10.6-5.1-13.8-10.2c-3-4.9-7.3-7.9-12.5-10.1c-21.6-8.7-41.5-21.1-62.7-30.9c-2.2-1-4.6-1.8-5.3-4.4
			c-8.3-1.7-11.5-3.9-12.5-12.4c-0.1-0.7-0.2-1.4-0.4-2.1c-1.3-4.2-8.1-1.7-8.1-5.7c-0.1-3.7,0.9-7.2-2.1-10c-2.1-1.9-4.6-5-6.9-5
			c-8.6,0.2-10.6-5.8-13.1-12c-1.3-3.3-2.7-6.9-6.2-8.7c-1.3-0.7-2.8-1.5-2.9-3c-0.3-10.7-9.3-12.9-16.4-17
			c-9.7-5.7-19.4-11.5-28.4-18.3c-2.9-2.2-5.2-5.2-8.9-6.2c-3.2-0.9-4.3-3.5-5.2-6.4c-4.5-13.6-10.9-25.9-24.5-32.8
			c-1.3-0.7-2.9-1.9-1.9-3.4c5.3-7.6-1.4-12.1-4.4-17.5c-3.2-5.9-8.6-8.6-15.2-7.9c-1.9-8.7,2.4-16.4,0.5-24.5
			c-1.9-8.1-1.6-8.2-10.3-9.2c-2.2-0.2-4.7-0.2-5.1-3c-0.4-2.6,0.3-5.2,2.7-6.7c2.2-1.4,4.5-2,7.1-0.4c7.5,4.5,6.7,3.9,10.3-3.4
			c5.2-10.4,4.9-21.8,7.2-32.6c1.8-8.4-0.3-16.6-4.4-24.3c-1.2-2.3-3.4-4.3-3.8-7.1c-2.5-1.9-8.1-7.4-9.4-10.1
			c-3-6.5-8-11.1-13.6-15.4c-6.1-4.7-9.4-11.1-9.5-18.9c-0.3-11.6-3.6-21.4-14.4-27.6c-4.5-2.6-6.2-7.4-7.6-11.6
			c-2.4-7.2-5.9-13.2-12.1-17.7c-2.4-1.7-4-4-4.2-7.3c-0.7-9.2-1.1-9-2.8-11c-3.4-4.3-6.5-8.8-9.7-13.2c-3.3-4.6-7.6-7.8-13.1-9.4
			c-5.8-1.8-9.3-5.2-9.3-11.8c0-4.7-3.2-7.9-6.6-10.8c-0.9-0.3-1.7-0.5-2.6-0.8c-9.6,0.9-3.4-4.4-3.9-7.1c-0.1-3.2-0.2-6.4-0.4-9.7
			c-0.1-2.8-1.5-5.7-0.2-8.5c-2.7-0.4-1.9-2.4-2-4.1c-1.5-0.5-2.2-1.7-2.6-3.1c-0.2-1-0.8-2.1-1-3.1c-1.5-4.3-1.8-9.9-3-14.1
			c-1.1-4-3.6-8.3-5.6-11.3c-1.1-1.2-2-2.4-2.7-3.8c-7.2-14.9-19.6-23.1-34.7-27.8c-4.7-1.5-8.6-3.7-11.7-7.6
			c-3.1-3.7-7.5-7.1,0.4-10.5c2.8-1.2,2.8-4.4,2-6.8c-4.4-13.3-7.7-27.3-13.9-39.7c-5.4-10.9-14.1-20.2-21.5-30.2
			c-0.8-1.1-1.8-2.2-2.4-3.3c-0.2,0.1-0.3,0.1-0.5,0.2c-9.1-11.5-19.2-30.9-25.5-44c-3-6.3-5.8-12.5-10.8-17.5c-1-1-2.4-2.5-2.2-3.6
			c1.4-10.6-5.9-18.5-8.4-27.9c-1.6-6,2-12.5-2.6-17.9c-3.8-4.4-7.7-8.7-11.1-13.4c-4.8-6.6-6.6-14.5-8.1-22.4
			c-1-5.7-2.1-11.2-4.5-16.7c-1.8-4.2-2.8-7.5-7.7-9.2c-4-1.4-6-5-3.8-9.7c2.2-4.6,1.2-8.6-3.6-10.9c-2.5-1.2-4.4-2.4-3.5-5.7
			c0.4-1.5-0.3-3.4-1.5-3.7c-7.7-1.8-9.8-14.2-9.8-14.2c-0.3-4.3-3-12.3-5.7-14.6c-6.4-5.4-10-10.7-8.1-20.6
			c1.7-9.1,0.1-19.7-9.2-26.4c-2.9-2.1-5.3-5-8.2-7.3c-3.3-2.7-8-4.5-4.1-10.2c0.4-0.6,0-2.3-0.6-3.1c-5.6-7.6-8.2-17.2-14.8-24
			c-11.7-12-23.4-23.9-36.9-34.1c-9.3-7.1-17.2-16.1-20-28.8c-1.9-8.3-7.2-15.8-12.4-22.9c-4.1-5.7-7.3-11.4-7.2-19
			c0.1-7.5-3.8-13.8-8.2-19.9c-3.1-4.3-11.1-10.7-9-17c-7.6-9.8-15-19.8-25.8-26.5c-3.5-2.2-5.5-5.8-6.7-9.7
			c-2.4-8.5-8.2-14.5-14.9-19.7c-11.8-9.2-24.3-16.7-38.8-21.9c-12.4-4.4-23.1-13.5-32.7-23c-10.7-5.4-25.8-11.5-37.3-15.1
			c-12.3-3.8-23.2-10.4-34.8-15.7c-5.3-2.5-6.6-7.5-7.9-12.4c-2.3-9.2,1.1-18.3,7.7-22.9c2.9-2,4.9-1.8,7.8-0.2
			c13.2,7.2,22.7,2.6,25.7-12.4c1.2-6.2,1.6-12.7-0.6-18.5c-5.4-14.3-12-28.2-25.2-37.5c-5.3-3.8-11.1-7.1-15.1-12.6
			c-2.7-3.7-4.4-7.7-2.6-12.2c1.2-2.8,1.9-5.3,6.4-6.1c8.5-1.4,10.5-6.6,5.6-14.2c-3.9-6.1-8.5-11.9-14.3-16.4
			c-7.9-6.2-10.9-16.3-18.6-22.6c-1.7-1.4-0.1-3.4,0.6-5c3.4-7.8,5.6-15.8,3.1-24.4c-0.7-2.4-0.3-5.1,1.1-7.4c0.7-1.3,2-2.5,2-3.8
			c0.5-19.2,42.6-58.9,50.4-65.3c4.7-3.8,9.2-7.3,7.6-14.2c-0.9-3.8,2.5-4,4.4-5c8.4-4.4,16.5-9.2,23.9-15.2
			c5.5-4.5,8.6-10.8,13.2-15.8c4.7-5,12.4-2.7,18.4-5.9c4.5-2.4,6-8.4,11.6-9c4.7,5.2,9.7,10.3,7.1,18.4c-0.2,0.6-0.2,1.7,0.2,2.1
			c5.3,4.7,4.6,9.4,2.1,15.6c-1.4,3.4,0.9,8,3.7,11.9c5.7,7.8,4.9,10-2.7,15.9c-2.3,1.8-4.8,3.3-7,5.2c-2.8,2.5-5.1,2.8-8.7,1
			c-9.1-4.6-14.4-1.9-20,6.7c-5.8,8.9,1.3,30.8,12.3,35c-1.4,5.7-6,8.9-9.6,12.9c-4.6,5.1-4.6,8.5,0.8,12.9
			c11.6,9.6,17.3,8.4,27.3-1.7c4.3-4.4,8.7-8.7,12.8-13.3c6-6.7,6.3-6.6,13.2-1.1c5.7,4.5,11.1,9.5,19.1,9.9
			c2.6,0.1,4.4,2.2,6.2,4.1c6.1,6.4,8.4,8.4,13.2,7.4c-1.4,1.7-2.4,3.4-3,5.3c-1,3.1-0.8,6.1,0.8,8.9c1.6,2.8,3.7,6.1,5.6,9.3
			c3,4.7,7.6,12.2,8.7,15.4c-0.8-0.3-2-0.9-3.9-2c-2.6-1.6-5-3.2-7.1-4.5c-7.7-5-12.4-8-16.3-6.3c-2.6,1.1-4.2,3.9-5.3,9.4
			c-3.1,15.6,4.4,33.2,17.9,41.9c13.6,8.7,25.8,21,22.8,27.6c-3.6,8.2,1,16,9.3,30.3c1.5,2.5,3.2,5.4,4.9,8.5
			c12.5,22,20.2,39.9,16.8,56.2c-2.8,13.3-2.4,31.5,3.8,40.7c2,3,4.5,4.8,7.3,5.3c6.2,1.1,12.2,6,17,10c2.9,2.4,5.2,4.2,7.2,5
			c1,0.4,2.9,0.9,5.3,1.5c3.3,0.9,7.4,1.9,10.8,3.2c2.5,0.9,3.8,1.7,4.5,2.2c0.7,0.5,0.8,0.8,0.8,0.8c0,0-0.3,1-3.5,2.5
			c-7.5,3.5-10.7,6.4-10.7,9.5c0,3.7,4.1,5.7,8.5,7.9c0.4,0.2,0.8,0.4,1.2,0.6c6.7,3.3,7,13.8,4.6,20c-3,8.1,0.7,26.1,4.3,29.7
			c1.2,1.2,3.9,2.1,9,3.7c5,1.6,16.8,5.3,16,8.4c-1.3,5.3,3.2,9.2,7.6,12.9c3.3,2.8,6.8,5.7,7.5,8.9c1.3,5.7,0.7,13.4,0.3,19.6
			c-0.2,2.7-0.4,5.3-0.4,7.4c0,2.7,1,7.6,2.2,13.3c1.7,7.8,4.2,19.7,2.7,22.6c-1.9,3.8-1.3,12.3,1.3,19.8c2.5,7.1,6.4,12.1,11,14.2
			c9.6,4.4,22.1,16.7,19.6,24.9c-2.8,9.3,1.7,19.7,12.1,27.8c1.3,1,2.6,2,3.8,2.9c6.1,4.6,13.6,10.2,12.5,13.6
			c-1.1,3.4,2.1,7.5,6.6,13.3c5.3,6.7,11.8,15.1,10.4,21.9c-0.9,4.3-2.7,8.1-4.3,11.5c-3.1,6.7-6.3,13.6,1.4,19
			c2.6,1.8,5.5,3.4,8.3,5c8.2,4.5,13.2,7.5,11.6,12.5c-2,6.7,1.6,15.7,4.6,22.9c1.4,3.5,2.9,7.2,2.9,8.9c0,5.7,0.9,26.6,0.9,27.5
			l0,0.4l0.1,0.3c0.7,1.9,18,45.5,19.9,49.3c0.2,0.4,0.4,0.7,0.5,1c1.4,2.8,2.1,4.1,2.1,11.2v23.5l12.9,2.1l15.5,6.9v12.7l13.8,14.8
			l0.6,0.6l0.8,0.1c4.6,0.3,11.3,2.1,11.3,4.5c0,5.7,0.9,14.9,1,15.3l0,0.3c0.2,0.7,4,16.8,12.9,24.7c3.7,3.3,7.8,4.3,11.5,5.2
			c5.3,1.3,8.2,2,8.6,8.5c1.4,20.2,4.3,30.3,9.4,33.8c2,1.3,4.7,2.3,7.5,3.3c6.6,2.3,10.9,4.1,10.4,8c-0.6,5.7,4.1,14.9,7,19.8
			c3.5,6,8.4,13.1,11.2,14.4c2.8,1.4,7.2,5.2,5.5,14.7c-2,10.8,1.8,21,11.9,32.1c2.4,2.7,4.8,4.8,7.1,6.9
			c6.5,5.9,11.3,10.1,11.3,21.9c0,17.1,0,22.8,8.4,29.1c6.9,5.2,13.3,10.6,13.3,15.3c0,7.3,15,22.5,16.7,24.2c0.4,0.4,0.7,0.7,1,1
			c1.2,1.2,1.5,1.5,1.6,2c0.2,0.7,0,2.4-0.4,5l-0.1,0.6c-0.7,5.8,3.1,7.1,6.3,8.2c2.4,0.8,5.2,1.8,7.4,4.7
			c7.8,10.4,17.3,24.7,20.5,33.5c3.6,9.9,2.7,32,2.7,32.3l-0.1,1.7l1.7,0.4c6.1,1.5,22,7.4,22,16.8c0,13.6,6.8,27.6,13.1,32.8
			c2.1,1.8,4.7,8,7,13.4c4.2,10.1,7,16.3,11.4,16.3c2.4,0,12.4,1.5,22.3,4.3c13.5,3.8,17.1,7.3,17.1,8.7c0,7,2.9,10.1,7.7,15.3
			c1.8,1.9,3.7,4,6,6.8l1.1,1.3c8.3,10.2,16.9,20.7,21.3,30.4c5,11,16.5,30,25.3,35.9c4.2,2.8,11.1,5.1,17.8,7.2
			c5.7,1.9,13.5,4.4,14.7,6.3c1.7,2.8,5.2,2.6,8.6,2.4c5.9-0.3,9.6-0.2,10,7c0.7,10.8,5.5,14,9.1,16.3c1.8,1.2,2.9,1.9,3.3,3.2
			c1.7,5.1,2.7,27.1,2.7,30.5c0,0.8,0.3,1.5,0.8,2c1,1,2.5,1,4.6,1c4.4-0.1,11-0.2,15.7,8.5c7.8,14.7,20.7,21.8,27,22.8
			c2.5,0.4,5.4-0.5,8.9-1.6c6.6-2.1,11.1-3.2,13.2,0.6c1.3,2.3,2.5,4,4.3,4.3c1.7,0.3,2.9-0.7,3.8-1.5c1.4-1.2,2.7-2.3,6.2-0.9
			c2.4,1,4.6,2.1,6.7,3.1c5.8,2.9,11.2,5.7,17.7,2.4c0.5-0.3,1-0.5,1.6-0.8c4.7-2.4,9.9-5.1,13.5-3.9c1.5,0.5,2.8,1.7,3.8,3.7
			c2.9,5.7,8.4,6.8,13.2,7.8c4.5,0.9,8.7,1.7,11.5,5.7c7.2,10.4,18.6,10.4,25.4,10.4c1.4,0,2.9-0.2,4.6-0.4
			c6.5-0.8,13.2-1.6,17.1,7.6c7,16.2,27.5,16.4,28.4,16.4c0.4,0,4.4,0.6,23.1,19.2c2.2,2.2,7,2.4,13.7,2.7
			c7.2,0.3,16.2,0.7,21.6,4.2c4.3,2.7,10.3,2.9,16.2,3c11,0.3,17.8,0.9,18.8,10.5c2.1,20.9,14.5,27.6,25.1,31.1
			c4.5,1.5,10.5,1.2,16.2,1c11.1-0.5,17.8-0.3,18.2,5.6c0.6,8,7.6,10.5,13.3,12.6c6.5,2.3,9.1,3.7,8.5,7.7
			c-2,13.3,8.8,32.7,13.7,38.5c2.1,2.5,7.8,5,17.1,8.8c5.7,2.4,11.7,4.8,16,7.2c5.7,3.2,5.4,4.6,5.4,4.6c-2.1,5.7,3.2,8.1,8.4,10.4
			c4.8,2.2,10.7,4.8,14.6,10.4c7.9,11.5,7.2,22.1,7.2,22.2l-0.1,1.8l1.7,0.5c5.5,1.5,20.1,7,22.1,14.6c1.7,6.2,12.5,18.6,22.1,28.1
			c6.5,6.5,14.5,13.8,21.2,18.6C1595.8,2426.9,1596.4,2430.6,1597.1,2434.1z"/>
		<path class="st0" d="M881.4,56.9c0.5,1.9-1.8,1.7-2.8,2.4c-3.5,0.3-7.2-2.5-6.9-5.1c0.2-1.2,1.1-1.8,2.2-1.8
			C877.1,52.6,880.3,53.3,881.4,56.9z"/>
		<path class="st0" d="M867.8,66.1c-0.2,0.4-0.5,0.8-0.7,1.2c-0.2-0.2-0.6-0.5-0.6-0.6c0.1-0.5,0.4-0.9,0.6-1.3
			C867.4,65.6,867.6,65.8,867.8,66.1z"/>
		<path class="st0" d="M862.8,60c0.5,0.2,2,1.1,0.8,2.3c-0.5,1.5-1.8,0.9-2.5,0.6c-0.5-0.2-2-0.7-0.9-2.2
			C861,59.6,862,59.7,862.8,60z"/>
	</g>
	<g>
	</g>
</g>
</svg>
